<svg width="40" height="40" viewBox="0 0 40 40" fill="none" xmlns="http://www.w3.org/2000/svg">
<rect x="1" y="1" width="38" height="38" rx="5" stroke="#3F8AE0" stroke-width="2"/>
<path d="M20 27.2188H28" stroke="#808080" stroke-width="2" stroke-linecap="round" stroke-linejoin="round"/>
<path d="M24 12.5523C24.3536 12.1987 24.8332 12 25.3333 12C25.581 12 25.8262 12.0488 26.0549 12.1435C26.2837 12.2383 26.4916 12.3772 26.6667 12.5523C26.8418 12.7274 26.9807 12.9352 27.0754 13.164C27.1702 13.3928 27.219 13.638 27.219 13.8856C27.219 14.1332 27.1702 14.3784 27.0754 14.6072C26.9807 14.836 26.8418 15.0439 26.6667 15.219L15.5556 26.3301L12 27.219L12.8889 23.6634L24 12.5523Z" stroke="#808080" stroke-width="2" stroke-linecap="round" stroke-linejoin="round"/>
</svg>
