<svg width="474" height="474" viewBox="0 0 474 474" fill="none" xmlns="http://www.w3.org/2000/svg">
<rect width="474" height="474" fill="#F2F3F5"/>
<path d="M197 246.67H278V165.67H197V246.67Z" fill="#222222"/>
<rect x="166" y="268" width="143" height="48" rx="10" fill="#222222"/>
<path d="M182.288 296.868H183.328C183.584 296.484 183.787 296.063 183.936 295.604C184.096 295.145 184.219 294.639 184.304 294.084C184.389 293.519 184.443 292.905 184.464 292.244C184.496 291.572 184.512 290.841 184.512 290.052V287.3H191.712V296.868H193.104V300.58H191.328V298.5H184.064V300.58H182.288V296.868ZM189.808 296.868V288.916H186.336V290.052C186.336 291.492 186.267 292.772 186.128 293.892C185.989 295.012 185.712 296.004 185.296 296.868H189.808ZM197.742 298.628C196.643 298.628 195.769 298.297 195.118 297.636C194.478 296.964 194.158 295.999 194.158 294.74V293.604C194.158 293.028 194.238 292.511 194.398 292.052C194.569 291.593 194.809 291.204 195.118 290.884C195.438 290.564 195.817 290.319 196.254 290.148C196.702 289.977 197.198 289.892 197.742 289.892C198.286 289.892 198.777 289.977 199.214 290.148C199.662 290.319 200.041 290.564 200.35 290.884C200.67 291.204 200.91 291.593 201.07 292.052C201.241 292.511 201.326 293.028 201.326 293.604V294.74C201.326 295.999 201.001 296.964 200.35 297.636C199.71 298.297 198.841 298.628 197.742 298.628ZM197.742 297.076C198.297 297.076 198.729 296.895 199.038 296.532C199.358 296.169 199.518 295.572 199.518 294.74V293.604C199.518 292.868 199.358 292.324 199.038 291.972C198.729 291.62 198.297 291.444 197.742 291.444C197.187 291.444 196.75 291.62 196.43 291.972C196.121 292.324 195.966 292.868 195.966 293.604V294.74C195.966 295.572 196.121 296.169 196.43 296.532C196.75 296.895 197.187 297.076 197.742 297.076ZM206.383 298.628C205.839 298.628 205.343 298.543 204.895 298.372C204.457 298.191 204.079 297.913 203.759 297.54C203.449 297.167 203.209 296.697 203.039 296.132C202.879 295.556 202.799 294.873 202.799 294.084V293.012C202.799 292.191 202.836 291.423 202.911 290.708C202.996 289.983 203.161 289.348 203.407 288.804C203.663 288.26 204.025 287.823 204.495 287.492C204.964 287.161 205.588 286.975 206.367 286.932C206.793 286.911 207.161 286.889 207.471 286.868C207.78 286.847 208.052 286.82 208.287 286.788C208.521 286.756 208.729 286.713 208.911 286.66C209.092 286.596 209.273 286.521 209.455 286.436V288.052C209.348 288.116 209.225 288.175 209.087 288.228C208.948 288.271 208.772 288.313 208.559 288.356C208.345 288.388 208.079 288.42 207.759 288.452C207.449 288.473 207.071 288.495 206.623 288.516C206.207 288.537 205.855 288.623 205.567 288.772C205.289 288.911 205.06 289.103 204.879 289.348C204.708 289.583 204.58 289.86 204.495 290.18C204.409 290.5 204.351 290.847 204.319 291.22C204.596 290.879 204.916 290.601 205.279 290.388C205.652 290.164 206.073 290.052 206.543 290.052C207.055 290.052 207.519 290.137 207.935 290.308C208.351 290.468 208.708 290.703 209.007 291.012C209.316 291.321 209.551 291.695 209.711 292.132C209.881 292.569 209.967 293.06 209.967 293.604V294.74C209.967 295.999 209.641 296.964 208.991 297.636C208.351 298.297 207.481 298.628 206.383 298.628ZM206.383 297.076C206.937 297.076 207.369 296.895 207.679 296.532C207.999 296.169 208.159 295.572 208.159 294.74V293.604C208.159 292.943 207.999 292.447 207.679 292.116C207.369 291.775 206.937 291.604 206.383 291.604C205.828 291.604 205.391 291.775 205.071 292.116C204.761 292.447 204.607 292.943 204.607 293.604V294.74C204.607 295.572 204.761 296.169 205.071 296.532C205.391 296.895 205.828 297.076 206.383 297.076ZM213.759 298.596C212.98 298.596 212.372 298.383 211.935 297.956C211.498 297.519 211.279 296.9 211.279 296.1C211.279 295.268 211.524 294.633 212.015 294.196C212.506 293.748 213.258 293.524 214.271 293.524H216.143V292.884C216.143 292.361 216.031 291.988 215.807 291.764C215.583 291.529 215.22 291.412 214.719 291.412C214.218 291.412 213.866 291.503 213.663 291.684C213.46 291.865 213.348 292.089 213.327 292.356H211.695C211.706 291.983 211.77 291.647 211.887 291.348C212.015 291.039 212.202 290.777 212.447 290.564C212.692 290.351 213.002 290.185 213.375 290.068C213.759 289.951 214.218 289.892 214.751 289.892C215.85 289.892 216.644 290.137 217.135 290.628C217.636 291.108 217.887 291.86 217.887 292.884V298.5H216.303V297.124C216.207 297.316 216.09 297.503 215.951 297.684C215.812 297.855 215.642 298.009 215.439 298.148C215.247 298.287 215.012 298.399 214.735 298.484C214.458 298.559 214.132 298.596 213.759 298.596ZM214.303 297.108C214.879 297.108 215.327 296.948 215.647 296.628C215.978 296.297 216.143 295.828 216.143 295.22V294.836H214.415C213.892 294.836 213.524 294.937 213.311 295.14C213.108 295.332 213.007 295.62 213.007 296.004C213.007 296.345 213.114 296.617 213.327 296.82C213.54 297.012 213.866 297.108 214.303 297.108ZM219.931 290.02H223.195C224.315 290.02 225.126 290.239 225.627 290.676C226.139 291.103 226.395 291.657 226.395 292.34C226.395 292.735 226.273 293.092 226.027 293.412C225.793 293.732 225.505 293.951 225.163 294.068C225.686 294.207 226.075 294.457 226.331 294.82C226.587 295.172 226.715 295.599 226.715 296.1C226.715 296.836 226.459 297.423 225.947 297.86C225.435 298.287 224.625 298.5 223.515 298.5H219.931V290.02ZM223.515 297.06C224.027 297.06 224.39 296.969 224.603 296.788C224.817 296.596 224.923 296.319 224.923 295.956C224.923 295.604 224.817 295.337 224.603 295.156C224.39 294.964 224.027 294.868 223.515 294.868H221.659V297.06H223.515ZM223.195 293.492C223.707 293.492 224.07 293.407 224.283 293.236C224.497 293.055 224.603 292.799 224.603 292.468C224.603 292.159 224.497 291.913 224.283 291.732C224.07 291.551 223.707 291.46 223.195 291.46H221.659V293.492H223.195ZM228.494 290.02H230.142V296.084L233.71 290.02H235.486V298.5H233.822V292.42L230.254 298.5H228.494V290.02ZM239.331 291.54H236.723V290.02H243.731V291.54H241.123V298.5H239.331V291.54ZM244.978 290.02H246.77V293.076H248.418C249.581 293.076 250.424 293.316 250.946 293.796C251.469 294.265 251.73 294.932 251.73 295.796C251.73 296.649 251.464 297.316 250.93 297.796C250.408 298.265 249.57 298.5 248.418 298.5H244.978V290.02ZM248.418 296.98C248.994 296.98 249.389 296.884 249.602 296.692C249.816 296.5 249.922 296.196 249.922 295.78C249.922 295.375 249.816 295.076 249.602 294.884C249.389 294.692 248.994 294.596 248.418 294.596H246.77V296.98H248.418ZM260.925 298.628C259.591 298.628 258.583 298.292 257.901 297.62C257.218 296.948 256.877 295.977 256.877 294.708V293.636C256.877 292.463 257.218 291.545 257.901 290.884C258.583 290.223 259.591 289.892 260.925 289.892V287.14H262.717V289.892C264.039 289.892 265.042 290.223 265.725 290.884C266.418 291.545 266.765 292.479 266.765 293.684V294.756C266.765 296.004 266.418 296.964 265.725 297.636C265.042 298.297 264.039 298.628 262.717 298.628V301.7H260.925V298.628ZM264.957 293.684C264.957 292.905 264.775 292.34 264.413 291.988C264.05 291.625 263.474 291.444 262.685 291.444V297.076C263.474 297.076 264.05 296.895 264.413 296.532C264.775 296.169 264.957 295.577 264.957 294.756V293.684ZM258.685 294.708C258.685 295.561 258.855 296.169 259.197 296.532C259.549 296.895 260.135 297.076 260.957 297.076V291.444C260.146 291.444 259.565 291.62 259.213 291.972C258.861 292.313 258.685 292.868 258.685 293.636V294.708ZM271.82 298.628C270.721 298.628 269.847 298.297 269.196 297.636C268.556 296.964 268.236 295.999 268.236 294.74V293.604C268.236 293.028 268.316 292.511 268.476 292.052C268.647 291.593 268.887 291.204 269.196 290.884C269.516 290.564 269.895 290.319 270.332 290.148C270.78 289.977 271.276 289.892 271.82 289.892C272.364 289.892 272.855 289.977 273.292 290.148C273.74 290.319 274.119 290.564 274.428 290.884C274.748 291.204 274.988 291.593 275.148 292.052C275.319 292.511 275.404 293.028 275.404 293.604V294.74C275.404 295.999 275.079 296.964 274.428 297.636C273.788 298.297 272.919 298.628 271.82 298.628ZM271.82 297.076C272.375 297.076 272.807 296.895 273.116 296.532C273.436 296.169 273.596 295.572 273.596 294.74V293.604C273.596 292.868 273.436 292.324 273.116 291.972C272.807 291.62 272.375 291.444 271.82 291.444C271.265 291.444 270.828 291.62 270.508 291.972C270.199 292.324 270.044 292.868 270.044 293.604V294.74C270.044 295.572 270.199 296.169 270.508 296.532C270.828 296.895 271.265 297.076 271.82 297.076ZM278.925 291.54H276.317V290.02H283.325V291.54H280.717V298.5H278.925V291.54ZM287.82 298.628C286.721 298.628 285.847 298.297 285.196 297.636C284.556 296.964 284.236 295.999 284.236 294.74V293.604C284.236 293.028 284.316 292.511 284.476 292.052C284.647 291.593 284.887 291.204 285.196 290.884C285.516 290.564 285.895 290.319 286.332 290.148C286.78 289.977 287.276 289.892 287.82 289.892C288.364 289.892 288.855 289.977 289.292 290.148C289.74 290.319 290.119 290.564 290.428 290.884C290.748 291.204 290.988 291.593 291.148 292.052C291.319 292.511 291.404 293.028 291.404 293.604V294.74C291.404 295.999 291.079 296.964 290.428 297.636C289.788 298.297 288.919 298.628 287.82 298.628ZM287.82 297.076C288.375 297.076 288.807 296.895 289.116 296.532C289.436 296.169 289.596 295.572 289.596 294.74V293.604C289.596 292.868 289.436 292.324 289.116 291.972C288.807 291.62 288.375 291.444 287.82 291.444C287.265 291.444 286.828 291.62 286.508 291.972C286.199 292.324 286.044 292.868 286.044 293.604V294.74C286.044 295.572 286.199 296.169 286.508 296.532C286.828 296.895 287.265 297.076 287.82 297.076Z" fill="white"/>
</svg>
