<svg width="343" height="251" viewBox="0 0 343 251" fill="none" xmlns="http://www.w3.org/2000/svg">
<path d="M4.5 15.105C3.46 15.105 2.61 14.86 1.95 14.37C1.29 13.87 0.85 13.04 0.63 11.88H2.04C2.14 12.24 2.255 12.545 2.385 12.795C2.525 13.045 2.69 13.25 2.88 13.41C3.08 13.56 3.31 13.675 3.57 13.755C3.84 13.825 4.15 13.86 4.5 13.86C4.9 13.86 5.255 13.8 5.565 13.68C5.875 13.55 6.14 13.345 6.36 13.065C6.58 12.775 6.745 12.4 6.855 11.94C6.975 11.48 7.04 10.91 7.05 10.23H3.075V9H7.05C7.05 8.39 6.99 7.875 6.87 7.455C6.75 7.025 6.58 6.675 6.36 6.405C6.15 6.135 5.89 5.94 5.58 5.82C5.28 5.7 4.94 5.64 4.56 5.64C3.93 5.64 3.42 5.78 3.03 6.06C2.65 6.34 2.365 6.845 2.175 7.575H0.78C0.98 6.455 1.4 5.645 2.04 5.145C2.68 4.645 3.52 4.395 4.56 4.395C5.77 4.395 6.72 4.78 7.41 5.55C8.11 6.31 8.46 7.495 8.46 9.105V10.095C8.46 10.975 8.37 11.735 8.19 12.375C8.01 13.005 7.75 13.525 7.41 13.935C7.07 14.335 6.655 14.63 6.165 14.82C5.675 15.01 5.12 15.105 4.5 15.105ZM9.70324 13.74C10.0032 13.7 10.2532 13.61 10.4532 13.47C10.6532 13.33 10.8132 13.12 10.9332 12.84C11.0532 12.55 11.1382 12.185 11.1882 11.745C11.2382 11.305 11.2632 10.765 11.2632 10.125V7.05H16.4982V15H15.1632V8.205H12.5682V10.125C12.5682 11.835 12.3482 13.095 11.9082 13.905C11.4682 14.705 10.7332 15.105 9.70324 15.105V13.74ZM21.4436 15.105C20.9636 15.105 20.5236 15.03 20.1236 14.88C19.7336 14.72 19.3986 14.49 19.1186 14.19C18.8486 13.88 18.6336 13.505 18.4736 13.065C18.3236 12.615 18.2486 12.1 18.2486 11.52V10.38C18.2486 9.26 18.5236 8.41 19.0736 7.83C19.6336 7.24 20.3986 6.945 21.3686 6.945C22.3386 6.945 23.0986 7.24 23.6486 7.83C24.2086 8.41 24.4886 9.27 24.4886 10.41V11.415H19.5686C19.5786 12.325 19.7486 12.98 20.0786 13.38C20.4186 13.77 20.8736 13.965 21.4436 13.965C21.6936 13.965 21.9086 13.935 22.0886 13.875C22.2786 13.805 22.4336 13.715 22.5536 13.605C22.6836 13.495 22.7836 13.37 22.8536 13.23C22.9236 13.09 22.9736 12.945 23.0036 12.795H24.3386C24.1786 13.575 23.8536 14.155 23.3636 14.535C22.8736 14.915 22.2336 15.105 21.4436 15.105ZM21.3836 8.085C20.8136 8.085 20.3686 8.26 20.0486 8.61C19.7386 8.95 19.5786 9.525 19.5686 10.335H23.2436C23.2236 9.525 23.0536 8.95 22.7336 8.61C22.4236 8.26 21.9736 8.085 21.3836 8.085ZM26.2365 7.05H27.5715V10.38H28.6065L31.1565 7.05H32.6415L29.7015 10.905L32.8815 15H31.3215L28.6215 11.52H27.5715V15H26.2365V7.05ZM35.9254 8.205H33.3904V7.05H39.7804V8.205H37.2454V15H35.9254V8.205ZM41.0098 7.05H42.1948V8.37C42.4248 7.93 42.7298 7.585 43.1098 7.335C43.4998 7.085 43.9798 6.96 44.5498 6.96C44.9698 6.96 45.3548 7.035 45.7048 7.185C46.0548 7.335 46.3548 7.555 46.6048 7.845C46.8648 8.125 47.0648 8.48 47.2048 8.91C47.3548 9.34 47.4298 9.83 47.4298 10.38V11.52C47.4298 12.11 47.3548 12.63 47.2048 13.08C47.0648 13.53 46.8648 13.905 46.6048 14.205C46.3548 14.505 46.0548 14.73 45.7048 14.88C45.3548 15.03 44.9698 15.105 44.5498 15.105C44.0098 15.105 43.5548 14.98 43.1848 14.73C42.8148 14.48 42.5348 14.16 42.3448 13.77V18H41.0098V7.05ZM44.2798 13.935C44.8198 13.935 45.2598 13.745 45.5998 13.365C45.9398 12.975 46.1098 12.36 46.1098 11.52V10.38C46.1098 9.63 45.9398 9.07 45.5998 8.7C45.2598 8.32 44.8198 8.13 44.2798 8.13C43.6798 8.13 43.2048 8.32 42.8548 8.7C42.5148 9.07 42.3448 9.63 42.3448 10.38V11.52C42.3448 12.36 42.5148 12.975 42.8548 13.365C43.2048 13.745 43.6798 13.935 44.2798 13.935ZM52.1051 15.105C51.1051 15.105 50.3101 14.8 49.7201 14.19C49.1301 13.57 48.8351 12.68 48.8351 11.52V10.38C48.8351 9.84 48.9101 9.36 49.0601 8.94C49.2201 8.51 49.4401 8.15 49.7201 7.86C50.0101 7.56 50.3551 7.335 50.7551 7.185C51.1551 7.025 51.6051 6.945 52.1051 6.945C52.6051 6.945 53.0551 7.025 53.4551 7.185C53.8551 7.335 54.1951 7.56 54.4751 7.86C54.7651 8.15 54.9851 8.51 55.1351 8.94C55.2951 9.36 55.3751 9.84 55.3751 10.38V11.52C55.3751 12.68 55.0801 13.57 54.4901 14.19C53.9001 14.8 53.1051 15.105 52.1051 15.105ZM52.1051 13.935C52.7051 13.935 53.1801 13.745 53.5301 13.365C53.8801 12.975 54.0551 12.36 54.0551 11.52V10.38C54.0551 9.62 53.8801 9.055 53.5301 8.685C53.1801 8.305 52.7051 8.115 52.1051 8.115C51.5051 8.115 51.0301 8.305 50.6801 8.685C50.3301 9.055 50.1551 9.62 50.1551 10.38V11.52C50.1551 12.36 50.3301 12.975 50.6801 13.365C51.0301 13.745 51.5051 13.935 52.1051 13.935ZM57.1307 7.05H63.2807V15H61.9457V8.205H58.4657V15H57.1307V7.05ZM68.2992 15.105C67.2992 15.105 66.5042 14.8 65.9142 14.19C65.3242 13.57 65.0292 12.68 65.0292 11.52V10.38C65.0292 9.84 65.1042 9.36 65.2542 8.94C65.4142 8.51 65.6342 8.15 65.9142 7.86C66.2042 7.56 66.5492 7.335 66.9492 7.185C67.3492 7.025 67.7992 6.945 68.2992 6.945C68.7992 6.945 69.2492 7.025 69.6492 7.185C70.0492 7.335 70.3892 7.56 70.6692 7.86C70.9592 8.15 71.1792 8.51 71.3292 8.94C71.4892 9.36 71.5692 9.84 71.5692 10.38V11.52C71.5692 12.68 71.2742 13.57 70.6842 14.19C70.0942 14.8 69.2992 15.105 68.2992 15.105ZM68.2992 13.935C68.8992 13.935 69.3742 13.745 69.7242 13.365C70.0742 12.975 70.2492 12.36 70.2492 11.52V10.38C70.2492 9.62 70.0742 9.055 69.7242 8.685C69.3742 8.305 68.8992 8.115 68.2992 8.115C67.6992 8.115 67.2242 8.305 66.8742 8.685C66.5242 9.055 66.3492 9.62 66.3492 10.38V11.52C66.3492 12.36 66.5242 12.975 66.8742 13.365C67.2242 13.745 67.6992 13.935 68.2992 13.935ZM77.3148 11.385C77.1448 11.585 76.9048 11.755 76.5948 11.895C76.2948 12.025 75.9398 12.09 75.5298 12.09C74.6498 12.09 73.9948 11.865 73.5648 11.415C73.1348 10.955 72.9198 10.2 72.9198 9.15V7.05H74.2548V9.075C74.2548 9.755 74.3798 10.235 74.6298 10.515C74.8898 10.785 75.2898 10.92 75.8298 10.92C76.2598 10.92 76.5898 10.835 76.8198 10.665C77.0598 10.495 77.2248 10.325 77.3148 10.155V7.05H78.6498V15H77.3148V11.385ZM82.413 8.205H79.878V7.05H86.268V8.205H83.733V15H82.413V8.205ZM89.3275 15.09C88.5975 15.09 88.0275 14.89 87.6175 14.49C87.2075 14.08 87.0025 13.51 87.0025 12.78C87.0025 12.01 87.2225 11.425 87.6625 11.025C88.1025 10.615 88.8075 10.41 89.7775 10.41H91.6675V9.645C91.6675 9.105 91.5425 8.715 91.2925 8.475C91.0525 8.225 90.6775 8.1 90.1675 8.1C89.9075 8.1 89.6875 8.13 89.5075 8.19C89.3275 8.24 89.1825 8.315 89.0725 8.415C88.9625 8.505 88.8775 8.61 88.8175 8.73C88.7575 8.85 88.7225 8.97 88.7125 9.09H87.4225C87.4525 8.78 87.5225 8.495 87.6325 8.235C87.7425 7.975 87.9075 7.75 88.1275 7.56C88.3475 7.37 88.6225 7.22 88.9525 7.11C89.2925 7 89.7025 6.945 90.1825 6.945C91.1425 6.945 91.8475 7.17 92.2975 7.62C92.7475 8.06 92.9725 8.735 92.9725 9.645V15H91.8175V13.68C91.7175 13.85 91.6025 14.02 91.4725 14.19C91.3425 14.36 91.1775 14.515 90.9775 14.655C90.7875 14.785 90.5575 14.89 90.2875 14.97C90.0175 15.05 89.6975 15.09 89.3275 15.09ZM89.7025 13.95C90.3025 13.95 90.7775 13.775 91.1275 13.425C91.4875 13.065 91.6675 12.58 91.6675 11.97V11.49H89.8375C89.2675 11.49 88.8675 11.595 88.6375 11.805C88.4175 12.005 88.3075 12.325 88.3075 12.765C88.3075 13.115 88.4225 13.4 88.6525 13.62C88.8825 13.84 89.2325 13.95 89.7025 13.95Z" fill="#222222"/>
<rect y="23" width="343" height="44" rx="10" fill="#F2F3F5"/>
<path d="M1.274 75.9H4.264C4.79267 75.9 5.25633 75.9607 5.655 76.082C6.05367 76.2033 6.38733 76.3723 6.656 76.589C6.92467 76.797 7.124 77.0527 7.254 77.356C7.39267 77.6507 7.462 77.9757 7.462 78.331C7.462 78.799 7.32767 79.202 7.059 79.54C6.799 79.8693 6.47833 80.1077 6.097 80.255C6.59967 80.3763 7.00267 80.6233 7.306 80.996C7.618 81.36 7.774 81.8367 7.774 82.426C7.774 82.7987 7.70467 83.141 7.566 83.453C7.436 83.765 7.23667 84.038 6.968 84.272C6.708 84.4973 6.37433 84.675 5.967 84.805C5.55967 84.935 5.083 85 4.537 85H1.274V75.9ZM4.511 83.934C5.239 83.934 5.76333 83.7953 6.084 83.518C6.40467 83.2407 6.565 82.8637 6.565 82.387C6.565 81.9103 6.40467 81.5333 6.084 81.256C5.76333 80.9787 5.239 80.84 4.511 80.84H2.496V83.934H4.511ZM4.264 79.8C4.966 79.8 5.473 79.67 5.785 79.41C6.097 79.1413 6.253 78.799 6.253 78.383C6.253 77.9583 6.097 77.616 5.785 77.356C5.48167 77.096 4.97467 76.966 4.264 76.966H2.496V79.8H4.264ZM9.35008 78.11H11.9241C12.7734 78.11 13.3974 78.2877 13.7961 78.643C14.2034 78.9897 14.4071 79.4403 14.4071 79.995C14.4071 80.1423 14.3811 80.2897 14.3291 80.437C14.2857 80.5843 14.2164 80.723 14.1211 80.853C14.0344 80.983 13.9261 81.0957 13.7961 81.191C13.6747 81.2863 13.5361 81.36 13.3801 81.412C13.8047 81.516 14.1254 81.7153 14.3421 82.01C14.5587 82.3047 14.6671 82.647 14.6671 83.037C14.6671 83.635 14.4634 84.1117 14.0561 84.467C13.6574 84.8223 13.0334 85 12.1841 85H9.35008V78.11ZM12.1841 84.025C12.6781 84.025 13.0247 83.9383 13.2241 83.765C13.4234 83.583 13.5231 83.323 13.5231 82.985C13.5231 82.6557 13.4234 82.4043 13.2241 82.231C13.0247 82.0577 12.6781 81.971 12.1841 81.971H10.4811V84.025H12.1841ZM11.9241 81.009C12.4181 81.009 12.7647 80.9267 12.9641 80.762C13.1634 80.5887 13.2631 80.3503 13.2631 80.047C13.2631 79.7437 13.1634 79.5097 12.9641 79.345C12.7647 79.1717 12.4181 79.085 11.9241 79.085H10.4811V81.009H11.9241ZM18.6971 85.091C18.2811 85.091 17.8998 85.026 17.5531 84.896C17.2151 84.7573 16.9248 84.558 16.6821 84.298C16.4481 84.0293 16.2618 83.7043 16.1231 83.323C15.9931 82.933 15.9281 82.4867 15.9281 81.984V80.996C15.9281 80.0253 16.1664 79.2887 16.6431 78.786C17.1284 78.2747 17.7914 78.019 18.6321 78.019C19.4728 78.019 20.1314 78.2747 20.6081 78.786C21.0934 79.2887 21.3361 80.034 21.3361 81.022V81.893H17.0721C17.0808 82.6817 17.2281 83.2493 17.5141 83.596C17.8088 83.934 18.2031 84.103 18.6971 84.103C18.9138 84.103 19.1001 84.077 19.2561 84.025C19.4208 83.9643 19.5551 83.8863 19.6591 83.791C19.7718 83.6957 19.8584 83.5873 19.9191 83.466C19.9798 83.3447 20.0231 83.219 20.0491 83.089H21.2061C21.0674 83.765 20.7858 84.2677 20.3611 84.597C19.9364 84.9263 19.3818 85.091 18.6971 85.091ZM18.6451 79.007C18.1511 79.007 17.7654 79.1587 17.4881 79.462C17.2194 79.7567 17.0808 80.255 17.0721 80.957H20.2571C20.2398 80.255 20.0924 79.7567 19.8151 79.462C19.5464 79.1587 19.1564 79.007 18.6451 79.007ZM22.147 83.986H22.758C22.9573 83.804 23.1177 83.5787 23.239 83.31C23.3603 83.0327 23.4557 82.7207 23.525 82.374C23.5943 82.0273 23.642 81.6547 23.668 81.256C23.694 80.8487 23.707 80.4283 23.707 79.995V78.11H28.179V83.986H29.024V86.625H27.919V85H23.265V86.625H22.147V83.986ZM27.022 83.986V79.111H24.786V80.034C24.786 80.8747 24.7383 81.62 24.643 82.27C24.5477 82.9113 24.3483 83.4833 24.045 83.986H27.022ZM30.489 78.11H31.594V83.375L34.805 78.11H35.949V85H34.844V79.735L31.633 85H30.489V78.11ZM39.266 79.111H37.069V78.11H42.607V79.111H40.41V85H39.266V79.111ZM46.1925 85.091C45.7765 85.091 45.3952 85.026 45.0485 84.896C44.7105 84.7573 44.4202 84.558 44.1775 84.298C43.9435 84.0293 43.7572 83.7043 43.6185 83.323C43.4885 82.933 43.4235 82.4867 43.4235 81.984V80.996C43.4235 80.0253 43.6619 79.2887 44.1385 78.786C44.6239 78.2747 45.2869 78.019 46.1275 78.019C46.9682 78.019 47.6269 78.2747 48.1035 78.786C48.5889 79.2887 48.8315 80.034 48.8315 81.022V81.893H44.5675C44.5762 82.6817 44.7235 83.2493 45.0095 83.596C45.3042 83.934 45.6985 84.103 46.1925 84.103C46.4092 84.103 46.5955 84.077 46.7515 84.025C46.9162 83.9643 47.0505 83.8863 47.1545 83.791C47.2672 83.6957 47.3539 83.5873 47.4145 83.466C47.4752 83.3447 47.5185 83.219 47.5445 83.089H48.7015C48.5629 83.765 48.2812 84.2677 47.8565 84.597C47.4319 84.9263 46.8772 85.091 46.1925 85.091ZM46.1405 79.007C45.6465 79.007 45.2609 79.1587 44.9835 79.462C44.7149 79.7567 44.5762 80.255 44.5675 80.957H47.7525C47.7352 80.255 47.5879 79.7567 47.3105 79.462C47.0419 79.1587 46.6519 79.007 46.1405 79.007ZM55.7764 85.091C55.0398 85.091 54.4634 84.922 54.0474 84.584C53.6314 84.2373 53.3454 83.7347 53.1894 83.076H54.3464C54.3898 83.206 54.4418 83.3317 54.5024 83.453C54.5718 83.5743 54.6584 83.6827 54.7624 83.778C54.8751 83.8733 55.0138 83.9513 55.1784 84.012C55.3431 84.064 55.5424 84.09 55.7764 84.09C56.2878 84.09 56.6908 83.9253 56.9854 83.596C57.2801 83.2667 57.4361 82.7337 57.4534 81.997H54.9834V80.996H57.4664C57.4491 80.3287 57.2931 79.8347 56.9984 79.514C56.7038 79.1847 56.3138 79.02 55.8284 79.02C55.5944 79.02 55.3951 79.0503 55.2304 79.111C55.0744 79.163 54.9401 79.2367 54.8274 79.332C54.7148 79.4187 54.6238 79.5227 54.5544 79.644C54.4938 79.7653 54.4418 79.8953 54.3984 80.034H53.2674C53.3021 79.7307 53.3888 79.4577 53.5274 79.215C53.6661 78.9637 53.8438 78.7513 54.0604 78.578C54.2858 78.396 54.5458 78.2573 54.8404 78.162C55.1438 78.0667 55.4731 78.019 55.8284 78.019C56.6691 78.019 57.3408 78.2833 57.8434 78.812C58.3548 79.332 58.6104 80.0687 58.6104 81.022V81.945C58.6104 82.9677 58.3548 83.7477 57.8434 84.285C57.3321 84.8223 56.6431 85.091 55.7764 85.091ZM59.5529 83.908C59.8129 83.8733 60.0295 83.7953 60.2029 83.674C60.3762 83.5527 60.5149 83.3707 60.6189 83.128C60.7229 82.8767 60.7965 82.5603 60.8399 82.179C60.8832 81.7977 60.9049 81.3297 60.9049 80.775V78.11H65.4419V85H64.2849V79.111H62.0359V80.775C62.0359 82.257 61.8452 83.349 61.4639 84.051C61.0825 84.7443 60.4455 85.091 59.5529 85.091V83.908ZM69.7778 85.091C69.3618 85.091 68.9805 85.026 68.6338 84.896C68.2958 84.7573 68.0055 84.558 67.7628 84.298C67.5288 84.0293 67.3425 83.7043 67.2038 83.323C67.0738 82.933 67.0088 82.4867 67.0088 81.984V80.996C67.0088 80.0253 67.2471 79.2887 67.7238 78.786C68.2091 78.2747 68.8721 78.019 69.7128 78.019C70.5535 78.019 71.2121 78.2747 71.6888 78.786C72.1741 79.2887 72.4168 80.034 72.4168 81.022V81.893H68.1528C68.1615 82.6817 68.3088 83.2493 68.5948 83.596C68.8895 83.934 69.2838 84.103 69.7778 84.103C69.9945 84.103 70.1808 84.077 70.3368 84.025C70.5015 83.9643 70.6358 83.8863 70.7398 83.791C70.8525 83.6957 70.9391 83.5873 70.9998 83.466C71.0605 83.3447 71.1038 83.219 71.1298 83.089H72.2868C72.1481 83.765 71.8665 84.2677 71.4418 84.597C71.0171 84.9263 70.4625 85.091 69.7778 85.091ZM69.7258 79.007C69.2318 79.007 68.8461 79.1587 68.5688 79.462C68.3001 79.7567 68.1615 80.255 68.1528 80.957H71.3378C71.3205 80.255 71.1731 79.7567 70.8958 79.462C70.6271 79.1587 70.2371 79.007 69.7258 79.007ZM73.9817 78.11H75.1387V80.996H76.0357L78.2457 78.11H79.5327L76.9847 81.451L79.7407 85H78.3887L76.0487 81.984H75.1387V85H73.9817V78.11ZM82.4287 79.111H80.2317V78.11H85.7697V79.111H83.5727V85H82.4287V79.111ZM86.8852 78.11H87.9122V79.254C88.1115 78.8727 88.3759 78.5737 88.7052 78.357C89.0432 78.1403 89.4592 78.032 89.9532 78.032C90.3172 78.032 90.6509 78.097 90.9542 78.227C91.2575 78.357 91.5175 78.5477 91.7342 78.799C91.9595 79.0417 92.1329 79.3493 92.2542 79.722C92.3842 80.0947 92.4492 80.5193 92.4492 80.996V81.984C92.4492 82.4953 92.3842 82.946 92.2542 83.336C92.1329 83.726 91.9595 84.051 91.7342 84.311C91.5175 84.571 91.2575 84.766 90.9542 84.896C90.6509 85.026 90.3172 85.091 89.9532 85.091C89.4852 85.091 89.0909 84.9827 88.7702 84.766C88.4495 84.5493 88.2069 84.272 88.0422 83.934V87.6H86.8852V78.11ZM89.7192 84.077C90.1872 84.077 90.5685 83.9123 90.8632 83.583C91.1579 83.245 91.3052 82.712 91.3052 81.984V80.996C91.3052 80.346 91.1579 79.8607 90.8632 79.54C90.5685 79.2107 90.1872 79.046 89.7192 79.046C89.1992 79.046 88.7875 79.2107 88.4842 79.54C88.1895 79.8607 88.0422 80.346 88.0422 80.996V81.984C88.0422 82.712 88.1895 83.245 88.4842 83.583C88.7875 83.9123 89.1992 84.077 89.7192 84.077ZM96.5511 85.091C95.6845 85.091 94.9955 84.8267 94.4841 84.298C93.9728 83.7607 93.7171 82.9893 93.7171 81.984V80.996C93.7171 80.528 93.7821 80.112 93.9121 79.748C94.0508 79.3753 94.2415 79.0633 94.4841 78.812C94.7355 78.552 95.0345 78.357 95.3811 78.227C95.7278 78.0883 96.1178 78.019 96.5511 78.019C96.9845 78.019 97.3745 78.0883 97.7211 78.227C98.0678 78.357 98.3625 78.552 98.6051 78.812C98.8565 79.0633 99.0471 79.3753 99.1771 79.748C99.3158 80.112 99.3851 80.528 99.3851 80.996V81.984C99.3851 82.9893 99.1295 83.7607 98.6181 84.298C98.1068 84.8267 97.4178 85.091 96.5511 85.091ZM96.5511 84.077C97.0711 84.077 97.4828 83.9123 97.7861 83.583C98.0895 83.245 98.2411 82.712 98.2411 81.984V80.996C98.2411 80.3373 98.0895 79.8477 97.7861 79.527C97.4828 79.1977 97.0711 79.033 96.5511 79.033C96.0311 79.033 95.6195 79.1977 95.3161 79.527C95.0128 79.8477 94.8611 80.3373 94.8611 80.996V81.984C94.8611 82.712 95.0128 83.245 95.3161 83.583C95.6195 83.9123 96.0311 84.077 96.5511 84.077ZM100.957 78.11H106.287V85H105.13V79.111H102.114V85H100.957V78.11ZM110.686 85.091C109.819 85.091 109.13 84.8267 108.619 84.298C108.108 83.7607 107.852 82.9893 107.852 81.984V80.996C107.852 80.528 107.917 80.112 108.047 79.748C108.186 79.3753 108.376 79.0633 108.619 78.812C108.87 78.552 109.169 78.357 109.516 78.227C109.863 78.0883 110.253 78.019 110.686 78.019C111.119 78.019 111.509 78.0883 111.856 78.227C112.203 78.357 112.497 78.552 112.74 78.812C112.991 79.0633 113.182 79.3753 113.312 79.748C113.451 80.112 113.52 80.528 113.52 80.996V81.984C113.52 82.9893 113.264 83.7607 112.753 84.298C112.242 84.8267 111.553 85.091 110.686 85.091ZM110.686 84.077C111.206 84.077 111.618 83.9123 111.921 83.583C112.224 83.245 112.376 82.712 112.376 81.984V80.996C112.376 80.3373 112.224 79.8477 111.921 79.527C111.618 79.1977 111.206 79.033 110.686 79.033C110.166 79.033 109.754 79.1977 109.451 79.527C109.148 79.8477 108.996 80.3373 108.996 80.996V81.984C108.996 82.712 109.148 83.245 109.451 83.583C109.754 83.9123 110.166 84.077 110.686 84.077ZM118.55 81.867C118.402 82.0403 118.194 82.1877 117.926 82.309C117.666 82.4217 117.358 82.478 117.003 82.478C116.24 82.478 115.672 82.283 115.3 81.893C114.927 81.4943 114.741 80.84 114.741 79.93V78.11H115.898V79.865C115.898 80.4543 116.006 80.8703 116.223 81.113C116.448 81.347 116.795 81.464 117.263 81.464C117.635 81.464 117.921 81.3903 118.121 81.243C118.329 81.0957 118.472 80.9483 118.55 80.801V78.11H119.707V85H118.55V81.867ZM123.018 79.111H120.821V78.11H126.359V79.111H124.162V85H123.018V79.111ZM127.988 86.599C128.23 86.599 128.438 86.5773 128.612 86.534C128.794 86.4907 128.95 86.4127 129.08 86.3C129.218 86.196 129.344 86.0487 129.457 85.858C129.569 85.676 129.678 85.442 129.782 85.156L127 78.11H128.287L130.354 83.7L132.213 78.11H133.448L130.887 85.156C130.705 85.65 130.527 86.053 130.354 86.365C130.18 86.6857 129.985 86.937 129.769 87.119C129.552 87.301 129.301 87.4267 129.015 87.496C128.729 87.5653 128.386 87.6 127.988 87.6V86.599ZM137.737 78.11H140.311C141.161 78.11 141.785 78.2877 142.183 78.643C142.591 78.9897 142.794 79.4403 142.794 79.995C142.794 80.1423 142.768 80.2897 142.716 80.437C142.673 80.5843 142.604 80.723 142.508 80.853C142.422 80.983 142.313 81.0957 142.183 81.191C142.062 81.2863 141.923 81.36 141.767 81.412C142.192 81.516 142.513 81.7153 142.729 82.01C142.946 82.3047 143.054 82.647 143.054 83.037C143.054 83.635 142.851 84.1117 142.443 84.467C142.045 84.8223 141.421 85 140.571 85H137.737V78.11ZM140.571 84.025C141.065 84.025 141.412 83.9383 141.611 83.765C141.811 83.583 141.91 83.323 141.91 82.985C141.91 82.6557 141.811 82.4043 141.611 82.231C141.412 82.0577 141.065 81.971 140.571 81.971H138.868V84.025H140.571ZM140.311 81.009C140.805 81.009 141.152 80.9267 141.351 80.762C141.551 80.5887 141.65 80.3503 141.65 80.047C141.65 79.7437 141.551 79.5097 141.351 79.345C141.152 79.1717 140.805 79.085 140.311 79.085H138.868V81.009H140.311ZM150.852 85.091C149.717 85.091 148.872 84.8223 148.317 84.285C147.763 83.7477 147.485 82.9677 147.485 81.945V81.022C147.485 80.0773 147.763 79.3407 148.317 78.812C148.872 78.2833 149.717 78.019 150.852 78.019V75.77H151.996V78.019C153.114 78.019 153.955 78.2833 154.518 78.812C155.082 79.3407 155.363 80.0947 155.363 81.074V81.997C155.363 82.9937 155.082 83.7607 154.518 84.298C153.955 84.8267 153.114 85.091 151.996 85.091V87.6H150.852V85.091ZM154.219 81.074C154.219 80.3893 154.037 79.878 153.673 79.54C153.309 79.202 152.746 79.033 151.983 79.033V84.077C152.746 84.077 153.309 83.908 153.673 83.57C154.037 83.2233 154.219 82.699 154.219 81.997V81.074ZM148.629 81.945C148.629 82.6903 148.798 83.232 149.136 83.57C149.483 83.908 150.059 84.077 150.865 84.077V79.033C150.068 79.033 149.496 79.1977 149.149 79.527C148.803 79.8477 148.629 80.346 148.629 81.022V81.945ZM159.469 85.091C158.602 85.091 157.913 84.8267 157.402 84.298C156.891 83.7607 156.635 82.9893 156.635 81.984V80.996C156.635 80.528 156.7 80.112 156.83 79.748C156.969 79.3753 157.159 79.0633 157.402 78.812C157.653 78.552 157.952 78.357 158.299 78.227C158.646 78.0883 159.036 78.019 159.469 78.019C159.902 78.019 160.292 78.0883 160.639 78.227C160.986 78.357 161.28 78.552 161.523 78.812C161.774 79.0633 161.965 79.3753 162.095 79.748C162.234 80.112 162.303 80.528 162.303 80.996V81.984C162.303 82.9893 162.047 83.7607 161.536 84.298C161.025 84.8267 160.336 85.091 159.469 85.091ZM159.469 84.077C159.989 84.077 160.401 83.9123 160.704 83.583C161.007 83.245 161.159 82.712 161.159 81.984V80.996C161.159 80.3373 161.007 79.8477 160.704 79.527C160.401 79.1977 159.989 79.033 159.469 79.033C158.949 79.033 158.537 79.1977 158.234 79.527C157.931 79.8477 157.779 80.3373 157.779 80.996V81.984C157.779 82.712 157.931 83.245 158.234 83.583C158.537 83.9123 158.949 84.077 159.469 84.077ZM163.874 78.11H164.901V79.254C165.101 78.8727 165.365 78.5737 165.694 78.357C166.032 78.1403 166.448 78.032 166.942 78.032C167.306 78.032 167.64 78.097 167.943 78.227C168.247 78.357 168.507 78.5477 168.723 78.799C168.949 79.0417 169.122 79.3493 169.243 79.722C169.373 80.0947 169.438 80.5193 169.438 80.996V81.984C169.438 82.4953 169.373 82.946 169.243 83.336C169.122 83.726 168.949 84.051 168.723 84.311C168.507 84.571 168.247 84.766 167.943 84.896C167.64 85.026 167.306 85.091 166.942 85.091C166.474 85.091 166.08 84.9827 165.759 84.766C165.439 84.5493 165.196 84.272 165.031 83.934V87.6H163.874V78.11ZM166.708 84.077C167.176 84.077 167.558 83.9123 167.852 83.583C168.147 83.245 168.294 82.712 168.294 81.984V80.996C168.294 80.346 168.147 79.8607 167.852 79.54C167.558 79.2107 167.176 79.046 166.708 79.046C166.188 79.046 165.777 79.2107 165.473 79.54C165.179 79.8607 165.031 80.346 165.031 80.996V81.984C165.031 82.712 165.179 83.245 165.473 83.583C165.777 83.9123 166.188 84.077 166.708 84.077ZM171.005 78.11H172.201L174.489 82.413L176.764 78.11H177.895V85H176.79V79.995L174.996 83.44H173.904L172.11 79.995V85H171.005V78.11ZM181.347 85.078C180.715 85.078 180.221 84.9047 179.865 84.558C179.51 84.2027 179.332 83.7087 179.332 83.076C179.332 82.4087 179.523 81.9017 179.904 81.555C180.286 81.1997 180.897 81.022 181.737 81.022H183.375V80.359C183.375 79.891 183.267 79.553 183.05 79.345C182.842 79.1283 182.517 79.02 182.075 79.02C181.85 79.02 181.659 79.046 181.503 79.098C181.347 79.1413 181.222 79.2063 181.126 79.293C181.031 79.371 180.957 79.462 180.905 79.566C180.853 79.67 180.823 79.774 180.814 79.878H179.696C179.722 79.6093 179.783 79.3623 179.878 79.137C179.974 78.9117 180.117 78.7167 180.307 78.552C180.498 78.3873 180.736 78.2573 181.022 78.162C181.317 78.0667 181.672 78.019 182.088 78.019C182.92 78.019 183.531 78.214 183.921 78.604C184.311 78.9853 184.506 79.5703 184.506 80.359V85H183.505V83.856C183.419 84.0033 183.319 84.1507 183.206 84.298C183.094 84.4453 182.951 84.5797 182.777 84.701C182.613 84.8137 182.413 84.9047 182.179 84.974C181.945 85.0433 181.668 85.078 181.347 85.078ZM181.672 84.09C182.192 84.09 182.604 83.9383 182.907 83.635C183.219 83.323 183.375 82.9027 183.375 82.374V81.958H181.789C181.295 81.958 180.949 82.049 180.749 82.231C180.559 82.4043 180.463 82.6817 180.463 83.063C180.463 83.3663 180.563 83.6133 180.762 83.804C180.962 83.9947 181.265 84.09 181.672 84.09ZM187.751 79.111H185.554V78.11H191.092V79.111H188.895V85H187.751V79.111ZM194.678 85.091C194.262 85.091 193.88 85.026 193.534 84.896C193.196 84.7573 192.905 84.558 192.663 84.298C192.429 84.0293 192.242 83.7043 192.104 83.323C191.974 82.933 191.909 82.4867 191.909 81.984V80.996C191.909 80.0253 192.147 79.2887 192.624 78.786C193.109 78.2747 193.772 78.019 194.613 78.019C195.453 78.019 196.112 78.2747 196.589 78.786C197.074 79.2887 197.317 80.034 197.317 81.022V81.893H193.053C193.061 82.6817 193.209 83.2493 193.495 83.596C193.789 83.934 194.184 84.103 194.678 84.103C194.894 84.103 195.081 84.077 195.237 84.025C195.401 83.9643 195.536 83.8863 195.64 83.791C195.752 83.6957 195.839 83.5873 195.9 83.466C195.96 83.3447 196.004 83.219 196.03 83.089H197.187C197.048 83.765 196.766 84.2677 196.342 84.597C195.917 84.9263 195.362 85.091 194.678 85.091ZM194.626 79.007C194.132 79.007 193.746 79.1587 193.469 79.462C193.2 79.7567 193.061 80.255 193.053 80.957H196.238C196.22 80.255 196.073 79.7567 195.796 79.462C195.527 79.1587 195.137 79.007 194.626 79.007ZM203.599 78.864L202.234 79.722L201.766 78.916L203.209 78.175L201.766 77.434L202.234 76.641L203.599 77.486L203.534 75.9H204.47L204.405 77.486L205.77 76.641L206.238 77.434L204.782 78.175L206.238 78.916L205.77 79.722L204.405 78.864L204.47 80.45H203.534L203.599 78.864ZM209.371 78.864L208.006 79.722L207.538 78.916L208.981 78.175L207.538 77.434L208.006 76.641L209.371 77.486L209.306 75.9H210.242L210.177 77.486L211.542 76.641L212.01 77.434L210.554 78.175L212.01 78.916L211.542 79.722L210.177 78.864L210.242 80.45H209.306L209.371 78.864ZM215.144 78.864L213.779 79.722L213.311 78.916L214.754 78.175L213.311 77.434L213.779 76.641L215.144 77.486L215.079 75.9H216.015L215.95 77.486L217.315 76.641L217.783 77.434L216.327 78.175L217.783 78.916L217.315 79.722L215.95 78.864L216.015 80.45H215.079L215.144 78.864ZM220.916 78.864L219.551 79.722L219.083 78.916L220.526 78.175L219.083 77.434L219.551 76.641L220.916 77.486L220.851 75.9H221.787L221.722 77.486L223.087 76.641L223.555 77.434L222.099 78.175L223.555 78.916L223.087 79.722L221.722 78.864L221.787 80.45H220.851L220.916 78.864ZM226.689 78.864L225.324 79.722L224.856 78.916L226.299 78.175L224.856 77.434L225.324 76.641L226.689 77.486L226.624 75.9H227.56L227.495 77.486L228.86 76.641L229.328 77.434L227.872 78.175L229.328 78.916L228.86 79.722L227.495 78.864L227.56 80.45H226.624L226.689 78.864ZM235.464 86.209C234.745 86.209 234.091 86.0963 233.501 85.871C232.912 85.6543 232.409 85.325 231.993 84.883C231.577 84.4323 231.257 83.8733 231.031 83.206C230.806 82.53 230.693 81.7413 230.693 80.84C230.693 79.9733 230.802 79.2063 231.018 78.539C231.244 77.863 231.556 77.2997 231.954 76.849C232.353 76.3983 232.821 76.056 233.358 75.822C233.904 75.588 234.498 75.471 235.139 75.471C236.543 75.471 237.635 75.9 238.415 76.758C239.195 77.616 239.585 78.877 239.585 80.541C239.585 80.9657 239.551 81.3513 239.481 81.698C239.421 82.0447 239.321 82.3437 239.182 82.595C239.052 82.8377 238.879 83.0283 238.662 83.167C238.454 83.3057 238.203 83.375 237.908 83.375C237.778 83.375 237.644 83.362 237.505 83.336C237.367 83.3013 237.232 83.2493 237.102 83.18C236.981 83.1107 236.868 83.0153 236.764 82.894C236.66 82.764 236.578 82.5993 236.517 82.4C236.37 82.79 236.153 83.0543 235.867 83.193C235.581 83.3317 235.278 83.401 234.957 83.401C234.377 83.401 233.904 83.206 233.54 82.816C233.176 82.426 232.994 81.854 232.994 81.1V80.58C232.994 80.1987 233.042 79.865 233.137 79.579C233.241 79.293 233.38 79.0547 233.553 78.864C233.727 78.6647 233.93 78.5173 234.164 78.422C234.407 78.3267 234.671 78.279 234.957 78.279C235.252 78.279 235.534 78.357 235.802 78.513C236.071 78.6603 236.249 78.8727 236.335 79.15V78.37H237.284V81.1C237.284 81.6113 237.341 81.958 237.453 82.14C237.575 82.3133 237.726 82.4 237.908 82.4C237.995 82.4 238.073 82.3783 238.142 82.335C238.22 82.2917 238.285 82.205 238.337 82.075C238.398 81.9363 238.441 81.7457 238.467 81.503C238.502 81.2603 238.519 80.9397 238.519 80.541C238.519 79.1457 238.233 78.1143 237.661 77.447C237.089 76.7797 236.249 76.446 235.139 76.446C234.663 76.446 234.216 76.537 233.8 76.719C233.393 76.901 233.038 77.174 232.734 77.538C232.44 77.902 232.206 78.3613 232.032 78.916C231.868 79.462 231.785 80.1033 231.785 80.84C231.785 81.6113 231.872 82.2743 232.045 82.829C232.219 83.375 232.466 83.83 232.786 84.194C233.107 84.5493 233.493 84.8137 233.943 84.987C234.394 85.1517 234.901 85.234 235.464 85.234C235.967 85.234 236.431 85.1647 236.855 85.026C237.289 84.8873 237.661 84.7097 237.973 84.493V85.585C237.644 85.7757 237.276 85.9273 236.868 86.04C236.47 86.1527 236.002 86.209 235.464 86.209ZM235.139 82.413C235.469 82.413 235.724 82.3133 235.906 82.114C236.097 81.906 236.192 81.568 236.192 81.1V80.58C236.192 80.1293 236.097 79.7957 235.906 79.579C235.724 79.3623 235.469 79.254 235.139 79.254C234.81 79.254 234.55 79.358 234.359 79.566C234.177 79.774 234.086 80.112 234.086 80.58V81.1C234.086 81.568 234.177 81.906 234.359 82.114C234.55 82.3133 234.81 82.413 235.139 82.413ZM242.779 78.864L241.414 79.722L240.946 78.916L242.389 78.175L240.946 77.434L241.414 76.641L242.779 77.486L242.714 75.9H243.65L243.585 77.486L244.95 76.641L245.418 77.434L243.962 78.175L245.418 78.916L244.95 79.722L243.585 78.864L243.65 80.45H242.714L242.779 78.864ZM248.551 78.864L247.186 79.722L246.718 78.916L248.161 78.175L246.718 77.434L247.186 76.641L248.551 77.486L248.486 75.9H249.422L249.357 77.486L250.722 76.641L251.19 77.434L249.734 78.175L251.19 78.916L250.722 79.722L249.357 78.864L249.422 80.45H248.486L248.551 78.864ZM254.324 78.864L252.959 79.722L252.491 78.916L253.934 78.175L252.491 77.434L252.959 76.641L254.324 77.486L254.259 75.9H255.195L255.13 77.486L256.495 76.641L256.963 77.434L255.507 78.175L256.963 78.916L256.495 79.722L255.13 78.864L255.195 80.45H254.259L254.324 78.864ZM258.737 85.091C258.477 85.091 258.256 85 258.074 84.818C257.892 84.636 257.801 84.415 257.801 84.155C257.801 83.8863 257.892 83.6653 258.074 83.492C258.256 83.31 258.477 83.219 258.737 83.219C258.997 83.219 259.218 83.31 259.4 83.492C259.582 83.6653 259.673 83.8863 259.673 84.155C259.673 84.415 259.582 84.636 259.4 84.818C259.218 85 258.997 85.091 258.737 85.091ZM262.34 78.864L260.975 79.722L260.507 78.916L261.95 78.175L260.507 77.434L260.975 76.641L262.34 77.486L262.275 75.9H263.211L263.146 77.486L264.511 76.641L264.979 77.434L263.523 78.175L264.979 78.916L264.511 79.722L263.146 78.864L263.211 80.45H262.275L262.34 78.864ZM268.112 78.864L266.747 79.722L266.279 78.916L267.722 78.175L266.279 77.434L266.747 76.641L268.112 77.486L268.047 75.9H268.983L268.918 77.486L270.283 76.641L270.751 77.434L269.295 78.175L270.751 78.916L270.283 79.722L268.918 78.864L268.983 80.45H268.047L268.112 78.864Z" fill="#808080"/>
<path d="M1.47 108.5H8.88V119H7.47V109.73H2.88V119H1.47V108.5ZM13.1614 119.09C12.4314 119.09 11.8614 118.89 11.4514 118.49C11.0414 118.08 10.8364 117.51 10.8364 116.78C10.8364 116.01 11.0564 115.425 11.4964 115.025C11.9364 114.615 12.6414 114.41 13.6114 114.41H15.5014V113.645C15.5014 113.105 15.3764 112.715 15.1264 112.475C14.8864 112.225 14.5114 112.1 14.0014 112.1C13.7414 112.1 13.5214 112.13 13.3414 112.19C13.1614 112.24 13.0164 112.315 12.9064 112.415C12.7964 112.505 12.7114 112.61 12.6514 112.73C12.5914 112.85 12.5564 112.97 12.5464 113.09H11.2564C11.2864 112.78 11.3564 112.495 11.4664 112.235C11.5764 111.975 11.7414 111.75 11.9614 111.56C12.1814 111.37 12.4564 111.22 12.7864 111.11C13.1264 111 13.5364 110.945 14.0164 110.945C14.9764 110.945 15.6814 111.17 16.1314 111.62C16.5814 112.06 16.8064 112.735 16.8064 113.645V119H15.6514V117.68C15.5514 117.85 15.4364 118.02 15.3064 118.19C15.1764 118.36 15.0114 118.515 14.8114 118.655C14.6214 118.785 14.3914 118.89 14.1214 118.97C13.8514 119.05 13.5314 119.09 13.1614 119.09ZM13.5364 117.95C14.1364 117.95 14.6114 117.775 14.9614 117.425C15.3214 117.065 15.5014 116.58 15.5014 115.97V115.49H13.6714C13.1014 115.49 12.7014 115.595 12.4714 115.805C12.2514 116.005 12.1414 116.325 12.1414 116.765C12.1414 117.115 12.2564 117.4 12.4864 117.62C12.7164 117.84 13.0664 117.95 13.5364 117.95ZM18.8279 111.05H20.0129V112.37C20.2429 111.93 20.5479 111.585 20.9279 111.335C21.3179 111.085 21.7979 110.96 22.3679 110.96C22.7879 110.96 23.1729 111.035 23.5229 111.185C23.8729 111.335 24.1729 111.555 24.4229 111.845C24.6829 112.125 24.8829 112.48 25.0229 112.91C25.1729 113.34 25.2479 113.83 25.2479 114.38V115.52C25.2479 116.11 25.1729 116.63 25.0229 117.08C24.8829 117.53 24.6829 117.905 24.4229 118.205C24.1729 118.505 23.8729 118.73 23.5229 118.88C23.1729 119.03 22.7879 119.105 22.3679 119.105C21.8279 119.105 21.3729 118.98 21.0029 118.73C20.6329 118.48 20.3529 118.16 20.1629 117.77V122H18.8279V111.05ZM22.0979 117.935C22.6379 117.935 23.0779 117.745 23.4179 117.365C23.7579 116.975 23.9279 116.36 23.9279 115.52V114.38C23.9279 113.63 23.7579 113.07 23.4179 112.7C23.0779 112.32 22.6379 112.13 22.0979 112.13C21.4979 112.13 21.0229 112.32 20.6729 112.7C20.3329 113.07 20.1629 113.63 20.1629 114.38V115.52C20.1629 116.36 20.3329 116.975 20.6729 117.365C21.0229 117.745 21.4979 117.935 22.0979 117.935ZM29.9232 119.105C28.9232 119.105 28.1282 118.8 27.5382 118.19C26.9482 117.57 26.6532 116.68 26.6532 115.52V114.38C26.6532 113.84 26.7282 113.36 26.8782 112.94C27.0382 112.51 27.2582 112.15 27.5382 111.86C27.8282 111.56 28.1732 111.335 28.5732 111.185C28.9732 111.025 29.4232 110.945 29.9232 110.945C30.4232 110.945 30.8732 111.025 31.2732 111.185C31.6732 111.335 32.0132 111.56 32.2932 111.86C32.5832 112.15 32.8032 112.51 32.9532 112.94C33.1132 113.36 33.1932 113.84 33.1932 114.38V115.52C33.1932 116.68 32.8982 117.57 32.3082 118.19C31.7182 118.8 30.9232 119.105 29.9232 119.105ZM29.9232 117.935C30.5232 117.935 30.9982 117.745 31.3482 117.365C31.6982 116.975 31.8732 116.36 31.8732 115.52V114.38C31.8732 113.62 31.6982 113.055 31.3482 112.685C30.9982 112.305 30.5232 112.115 29.9232 112.115C29.3232 112.115 28.8482 112.305 28.4982 112.685C28.1482 113.055 27.9732 113.62 27.9732 114.38V115.52C27.9732 116.36 28.1482 116.975 28.4982 117.365C28.8482 117.745 29.3232 117.935 29.9232 117.935ZM34.2288 117.74C34.5288 117.7 34.7788 117.61 34.9788 117.47C35.1788 117.33 35.3388 117.12 35.4588 116.84C35.5788 116.55 35.6638 116.185 35.7138 115.745C35.7638 115.305 35.7888 114.765 35.7888 114.125V111.05H41.0238V119H39.6888V112.205H37.0938V114.125C37.0938 115.835 36.8738 117.095 36.4338 117.905C35.9938 118.705 35.2588 119.105 34.2288 119.105V117.74ZM43.1191 111.05H44.4541V114.08H46.2541C47.3041 114.08 48.0641 114.295 48.5341 114.725C49.0041 115.155 49.2391 115.765 49.2391 116.555C49.2391 117.335 49.0041 117.94 48.5341 118.37C48.0641 118.79 47.3041 119 46.2541 119H43.1191V111.05ZM46.2541 117.845C46.8841 117.845 47.3191 117.74 47.5591 117.53C47.7991 117.32 47.9191 116.99 47.9191 116.54C47.9191 116.08 47.7991 115.745 47.5591 115.535C47.3191 115.325 46.8841 115.22 46.2541 115.22H44.4541V117.845H46.2541Z" fill="#222222"/>
<rect y="127" width="343" height="44" rx="10" fill="#F2F3F5"/>
<g clip-path="url(#clip0_108_4025)">
<path d="M324.94 154.94C323.231 156.243 321.149 156.965 319 157C312 157 308 149 308 149C309.244 146.682 310.969 144.657 313.06 143.06M316.9 141.24C317.588 141.079 318.293 140.998 319 141C326 141 330 149 330 149C329.393 150.136 328.669 151.205 327.84 152.19M321.12 151.12C320.845 151.415 320.514 151.651 320.146 151.815C319.778 151.979 319.381 152.067 318.978 152.074C318.575 152.081 318.175 152.007 317.802 151.857C317.428 151.706 317.089 151.481 316.804 151.196C316.519 150.911 316.294 150.572 316.144 150.198C315.993 149.825 315.919 149.425 315.926 149.022C315.933 148.619 316.021 148.222 316.185 147.854C316.349 147.486 316.585 147.155 316.88 146.88" stroke="#222222" stroke-width="2" stroke-linecap="round" stroke-linejoin="round"/>
<path d="M308 138L330 160" stroke="#222222" stroke-width="2" stroke-linecap="round" stroke-linejoin="round"/>
</g>
<rect y="203" width="343" height="48" rx="10" fill="#222222"/>
<path d="M126.392 222.3H134.648V233.5H132.744V223.916H128.296V233.5H126.392V222.3ZM137.119 225.02H138.751V226.38C138.996 225.932 139.311 225.58 139.695 225.324C140.079 225.057 140.575 224.924 141.183 224.924C142.09 224.924 142.815 225.228 143.359 225.836C143.914 226.444 144.191 227.367 144.191 228.604V229.74C144.191 231.084 143.914 232.071 143.359 232.7C142.815 233.319 142.09 233.628 141.183 233.628C140.639 233.628 140.175 233.5 139.791 233.244C139.407 232.988 139.114 232.657 138.911 232.252V236.7H137.119V225.02ZM140.703 232.076C141.215 232.076 141.62 231.895 141.919 231.532C142.228 231.169 142.383 230.572 142.383 229.74V228.604C142.383 227.868 142.228 227.329 141.919 226.988C141.62 226.647 141.215 226.476 140.703 226.476C140.148 226.476 139.711 226.647 139.391 226.988C139.071 227.329 138.911 227.868 138.911 228.604V229.74C138.911 230.572 139.071 231.169 139.391 231.532C139.711 231.895 140.148 232.076 140.703 232.076ZM149.242 233.628C148.143 233.628 147.269 233.297 146.618 232.636C145.978 231.964 145.658 230.999 145.658 229.74V228.604C145.658 228.028 145.738 227.511 145.898 227.052C146.069 226.593 146.309 226.204 146.618 225.884C146.938 225.564 147.317 225.319 147.754 225.148C148.202 224.977 148.698 224.892 149.242 224.892C149.786 224.892 150.277 224.977 150.714 225.148C151.162 225.319 151.541 225.564 151.85 225.884C152.17 226.204 152.41 226.593 152.57 227.052C152.741 227.511 152.826 228.028 152.826 228.604V229.74C152.826 230.999 152.501 231.964 151.85 232.636C151.21 233.297 150.341 233.628 149.242 233.628ZM149.242 232.076C149.797 232.076 150.229 231.895 150.538 231.532C150.858 231.169 151.018 230.572 151.018 229.74V228.604C151.018 227.868 150.858 227.324 150.538 226.972C150.229 226.62 149.797 226.444 149.242 226.444C148.687 226.444 148.25 226.62 147.93 226.972C147.621 227.324 147.466 227.868 147.466 228.604V229.74C147.466 230.572 147.621 231.169 147.93 231.532C148.25 231.895 148.687 232.076 149.242 232.076ZM153.771 231.98H154.587C154.811 231.735 154.987 231.431 155.115 231.068C155.253 230.705 155.355 230.3 155.419 229.852C155.483 229.404 155.52 228.919 155.531 228.396C155.552 227.873 155.562 227.329 155.562 226.764V225.02H161.403V231.98H162.459V235.5H160.795V233.5H155.435V235.5H153.771V231.98ZM159.595 231.98V226.54H157.243V227.372C157.243 228.343 157.189 229.207 157.083 229.964C156.987 230.721 156.773 231.393 156.443 231.98H159.595ZM167.32 233.628C166.221 233.628 165.347 233.297 164.696 232.636C164.056 231.964 163.736 230.999 163.736 229.74V228.604C163.736 228.028 163.816 227.511 163.976 227.052C164.147 226.593 164.387 226.204 164.696 225.884C165.016 225.564 165.395 225.319 165.832 225.148C166.28 224.977 166.776 224.892 167.32 224.892C167.864 224.892 168.355 224.977 168.792 225.148C169.24 225.319 169.619 225.564 169.928 225.884C170.248 226.204 170.488 226.593 170.648 227.052C170.819 227.511 170.904 228.028 170.904 228.604V229.74C170.904 230.999 170.579 231.964 169.928 232.636C169.288 233.297 168.419 233.628 167.32 233.628ZM167.32 232.076C167.875 232.076 168.307 231.895 168.616 231.532C168.936 231.169 169.096 230.572 169.096 229.74V228.604C169.096 227.868 168.936 227.324 168.616 226.972C168.307 226.62 167.875 226.444 167.32 226.444C166.765 226.444 166.328 226.62 166.008 226.972C165.699 227.324 165.544 227.868 165.544 228.604V229.74C165.544 230.572 165.699 231.169 166.008 231.532C166.328 231.895 166.765 232.076 167.32 232.076ZM171.977 231.932C172.585 231.847 173.001 231.511 173.225 230.924C173.459 230.327 173.577 229.495 173.577 228.428V225.02H179.465V233.5H177.657V226.54H175.273V228.428C175.273 229.239 175.209 229.964 175.081 230.604C174.963 231.244 174.771 231.788 174.505 232.236C174.249 232.684 173.907 233.031 173.481 233.276C173.065 233.511 172.563 233.628 171.977 233.628V231.932ZM183.156 229.244L180.964 225.02H182.98L184.692 228.428H185.62V225.02H187.412V228.428H188.34L190.116 225.02H192.068L189.876 229.1L192.308 233.5H190.244L188.356 229.932H187.412V233.5H185.62V229.932H184.676L182.708 233.5H180.724L183.156 229.244ZM193.588 225.02H195.236V231.084L198.804 225.02H200.58V233.5H198.916V227.42L195.348 233.5H193.588V225.02ZM204.425 226.54H201.817V225.02H208.825V226.54H206.217V233.5H204.425V226.54ZM210.072 225.02H211.864V228.076H213.512C214.675 228.076 215.517 228.316 216.04 228.796C216.563 229.265 216.824 229.932 216.824 230.796C216.824 231.649 216.557 232.316 216.024 232.796C215.501 233.265 214.664 233.5 213.512 233.5H210.072V225.02ZM213.512 231.98C214.088 231.98 214.483 231.884 214.696 231.692C214.909 231.5 215.016 231.196 215.016 230.78C215.016 230.375 214.909 230.076 214.696 229.884C214.483 229.692 214.088 229.596 213.512 229.596H211.864V231.98H213.512Z" fill="white"/>
<defs>
<clipPath id="clip0_108_4025">
<rect width="24" height="24" fill="white" transform="translate(307 137)"/>
</clipPath>
</defs>
</svg>
